<svg width="45" height="46" viewBox="0 0 45 46" fill="none" xmlns="http://www.w3.org/2000/svg">
<g clip-path="url(#clip0_220_1723)">
<path d="M31.875 11.75H28.125V9.875H30C30.4973 9.875 30.9742 9.67746 31.3258 9.32582C31.6775 8.97419 31.875 8.49728 31.875 8C31.875 7.50272 31.6775 7.02581 31.3258 6.67417C30.9742 6.32254 30.4973 6.125 30 6.125H26.25C25.7527 6.125 25.2758 6.32254 24.9242 6.67417C24.5725 7.02581 24.375 7.50272 24.375 8V11.75H23.3606C25.219 13.8061 26.2486 16.4785 26.25 19.25V26.75C26.25 27.2473 26.0525 27.7242 25.7008 28.0758C25.3492 28.4275 24.8723 28.625 24.375 28.625C23.8777 28.625 23.4008 28.4275 23.0492 28.0758C22.6975 27.7242 22.5 27.2473 22.5 26.75V19.25C22.5 15.1137 19.1363 11.75 15 11.75C14.86 11.7525 14.7225 11.77 14.5875 11.8025C14.4113 11.7912 14.2425 11.75 14.0625 11.75C11.8255 11.7525 9.68083 12.6422 8.09903 14.224C6.51723 15.8058 5.62748 17.9505 5.625 20.1875V30.5C5.625 30.9973 5.82254 31.4742 6.17417 31.8258C6.52581 32.1775 7.00272 32.375 7.5 32.375H20.625V38C20.625 38.4973 20.8225 38.9742 21.1742 39.3258C21.5258 39.6775 22.0027 39.875 22.5 39.875H26.25C26.7473 39.875 27.2242 39.6775 27.5758 39.3258C27.9275 38.9742 28.125 38.4973 28.125 38V32.375H37.5C37.9973 32.375 38.4742 32.1775 38.8258 31.8258C39.1775 31.4742 39.375 30.9973 39.375 30.5V19.25C39.375 15.1137 36.0112 11.75 31.875 11.75ZM15 27.6875H13.125C12.6277 27.6875 12.1508 27.49 11.7992 27.1383C11.4475 26.7867 11.25 26.3098 11.25 25.8125C11.25 25.3152 11.4475 24.8383 11.7992 24.4867C12.1508 24.135 12.6277 23.9375 13.125 23.9375H15C15.4973 23.9375 15.9742 24.135 16.3258 24.4867C16.6775 24.8383 16.875 25.3152 16.875 25.8125C16.875 26.3098 16.6775 26.7867 16.3258 27.1383C15.9742 27.49 15.4973 27.6875 15 27.6875Z" fill="black"/>
</g>
<defs>
<clipPath id="clip0_220_1723">
<rect y="0.5" width="45" height="45" rx="22.5" fill="white"/>
</clipPath>
</defs>
</svg>
