<?xml version="1.0" encoding="UTF-8"?>
<svg id="Layer_2" data-name="Layer 2" xmlns="http://www.w3.org/2000/svg" viewBox="0 0 89.97 91.8">
  <defs>
    <style>
      .cls-1 {
        fill: #34a353;
      }

      .cls-1, .cls-2, .cls-3, .cls-4 {
        stroke-width: 0px;
      }

      .cls-2 {
        fill: #4280ef;
      }

      .cls-3 {
        fill: #e54335;
      }

      .cls-4 {
        fill: #f6b704;
      }
    </style>
  </defs>
  <g id="Capa_1" data-name="Capa 1">
    <g>
      <path class="cls-2" d="M89.97,47c0-3.1-.3-6.3-.8-9.3h-43.3v17.7h24.8c-1,5.7-4.3,10.7-9.2,13.9l14.8,11.5c8.7-8.1,13.7-19.9,13.7-33.8h0Z"/>
      <path class="cls-1" d="M45.88,91.8c12.4,0,22.8-4.1,30.4-11.1l-14.8-11.4c-4.1,2.8-9.4,4.4-15.6,4.4-12,0-22.1-8.1-25.8-18.9l-15.2,11.7c7.8,15.5,23.6,25.3,41,25.3Z"/>
      <path class="cls-4" d="M20.07,54.7c-1.9-5.7-1.9-11.9,0-17.6l-15.2-11.8c-6.5,13-6.5,28.3,0,41.2l15.2-11.8Z"/>
      <path class="cls-3" d="M45.88,18.2c6.5-.1,12.9,2.4,17.6,6.9l13.1-13.2C68.28,4.1,57.28-.1,45.88,0,28.47,0,12.67,9.8,4.88,25.3l15.2,11.8c3.7-10.9,13.8-18.9,25.8-18.9Z"/>
    </g>
  </g>
</svg>